<svg id="Warstwa_1" data-name="Warstwa 1" xmlns="http://www.w3.org/2000/svg" width="406" height="116" viewBox="0 0 406 116"><defs><style>.cls-1{fill:#31982f;}</style></defs><path class="cls-1" d="M238.0706,26.7837a14.4715,14.4715,0,0,0-2.4625-8.6214,7.5569,7.5569,0,0,0-6.3768-3.3275,19.8423,19.8423,0,0,0-4.7355.7692q.0528,11.6265.1058,23.253c.3844.0064.7184.02,1.0016.0379s.515.03.6979.0332c3.9239.072,6.8734-1.0143,8.8486-3.2977A12.8947,12.8947,0,0,0,238.0706,26.7837Z"/><path class="cls-1" d="M189.1778,13.408q-5.4931.0062-8.8385,5.5832c-2.7815,4.6342-4.2025,11.4417-4.2532,20.38q-.0784,13.7414,4.2078,20.9959c2.1958,3.6728,5.1182,5.4447,8.7591,5.3678q5.8288-.123,9.633-6.2373,3.801-6.126,3.7968-19.266.0006-14.2561-4.1372-21.2578Q195.0282,13.4059,189.1778,13.408Z"/><path class="cls-1" d="M-.196,2.9113V113.0887a574.8521,574.8521,0,0,1,406.392,0V2.9113ZM64.8631,13.9374A3.575,3.575,0,0,0,62.2592,14.96a10.1168,10.1168,0,0,0-1.9414,3.7617c-.4157,1.2394-1.0815,4.1837-1.9944,8.8862q-6.0045,29.2256-11.919,60.618-.5964.1529-1.1928.3067Q40.8194,65.8377,36.365,41.7175q-4.7763,25.1169-9.4542,51.8331-.5335.1549-1.0667.3109-5.8077-31.39-11.7868-65.5241c-.8924-5.1016-1.46-8.1559-1.7-9.0949a8.0652,8.0652,0,0,0-1.6364-3.4585,3.5638,3.5638,0,0,0-2.8161-1.1073v-2.322q7.5657-.0525,15.1323-.1008-.0044,1.1008-.0088,2.2017l-.7235.01a2.724,2.724,0,0,0-2.4446,1.4785,6.9424,6.9424,0,0,0-.8541,3.5159,75.4185,75.4185,0,0,0,1.2922,9.6284q3.9321,22.592,7.7847,43.9422,3.447-19.6245,6.951-38.36-.5784-3.2047-1.1579-6.4356-.464-2.5788-.9287-5.1743a41.2448,41.2448,0,0,0-1.3839-5.0241,6.6412,6.6412,0,0,0-.953-1.83,5.4353,5.4353,0,0,0-1.4978-1.4852,3.5473,3.5473,0,0,0-1.8055-.3255q.0055-1.0848.0109-2.1694,7.9586-.05,15.918-.0948-.0087,1.0283-.0173,2.0563l-1.0849.0136a2.7076,2.7076,0,0,0-2.4816,1.3808,7.4118,7.4118,0,0,0-.8114,3.6785,61.9419,61.9419,0,0,0,1.2768,9.95q3.7467,20.4381,7.445,39.8369Q51.61,47.8781,55.7046,27.75a57.2351,57.2351,0,0,0,1.4226-9.2112,5.8679,5.8679,0,0,0-.4124-2.2763A3.0035,3.0035,0,0,0,55.63,14.7875a5.3111,5.3111,0,0,0-2.9759-.713q.01-.9972.02-1.9943,6.1056-.0325,12.2117-.0625Q64.8743,12.9776,64.8631,13.9374Zm19.5392-.1953-1.4781.0137a3.9056,3.9056,0,0,0-3.6809,2.4711q-.7743,1.6032-.8543,7.6867-.2859,21.8252-.572,43.65a35.1256,35.1256,0,0,0,.3031,6.7052,3.2423,3.2423,0,0,0,1.2349,1.9027,3.373,3.373,0,0,0,2.7234.6753q.7378-.1372,1.476-.2726-.0122.9066-.0244,1.8134-8.7495,1.65-17.4618,3.5429l.0229-1.908q.72-.1522,1.44-.3029a5.0836,5.0836,0,0,0,3.6928-3.2434q.7418-1.7669.82-7.9444.28-22.1949.5595-44.39a37.504,37.504,0,0,0-.3056-6.8838,4.3,4.3,0,0,0-1.2088-2.1647,3.9881,3.9881,0,0,0-2.7581-1.1932q-.7236.0073-1.4472.0152.0114-.954.0229-1.9079,8.76-.0423,17.52-.0792Q84.4145,12.8355,84.4023,13.7421ZM130.31,71.3355q-9.7966,1.1111-19.5646,2.5225.0117-.8462.0233-1.6925a3.7578,3.7578,0,0,0,2.5413-1.2376,3.3828,3.3828,0,0,0,.7992-2.0792,5.82,5.82,0,0,0-.2608-1.9162,14.7918,14.7918,0,0,0-1.8488-3q-6.9377-9.7075-13.8453-20.01Q98.01,54.2368,97.8661,64.55a31.6158,31.6158,0,0,0,.3028,6.36,3.15,3.15,0,0,0,1.241,1.8285,3.5878,3.5878,0,0,0,2.7348.6982q.6954-.1072,1.3912-.2129-.012.8609-.0241,1.7216Q94.7707,76.31,86.0605,77.916q.0122-.9.0246-1.8008.7233-.13,1.4468-.258a4.8967,4.8967,0,0,0,3.7121-2.9935q.7435-1.656.826-7.4975.2909-20.9859.5815-41.9719a34.4192,34.4192,0,0,0-.3009-6.5576,4.0128,4.0128,0,0,0-1.2086-2,4.1076,4.1076,0,0,0-2.7589-1.13l-1.4476.013q.0122-.9.0245-1.8009,8.7158-.0359,17.4324-.0663-.0118.8608-.024,1.7215l-1.3876.0108a4.3834,4.3834,0,0,0-2.76,1.1027,4.1089,4.1089,0,0,0-1.3292,2.2775,33.5862,33.5862,0,0,0-.4484,6.2373Q98.3065,32.996,98.17,42.79c.4106-.6285,1.8168-2.7486,4.2191-6.2655,6.0958-8.8392,9.7831-14.3872,11.0687-17.1889a8.1832,8.1832,0,0,0,.8583-3.1989,2.819,2.819,0,0,0-.6077-1.8351,2.5357,2.5357,0,0,0-2.1309-.782l-.9356.0067q.0117-.8481.0235-1.6962,7.51-.0248,15.0209-.0452l-.0213,1.6423a6.3947,6.3947,0,0,0-2.4206.55,11.4213,11.4213,0,0,0-2.68,1.9261,30.9917,30.9917,0,0,0-3.9246,4.6351c-.4513.62-2.5353,3.7274-6.2567,9.5393q-3.19,4.8639-6.3829,9.8777c4.9253,7.348,9.859,14.4415,14.8079,21.3452,2.4347,3.4179,4.5255,5.6573,6.268,6.7731A9.4671,9.4671,0,0,0,130.33,69.71Q130.32,70.5229,130.31,71.3355Zm35.1819-46.35a20.9757,20.9757,0,0,0-.8682-5.0028,7.6544,7.6544,0,0,0-2.4628-3.5581,6.6381,6.6381,0,0,0-4.0805-1.13q-2.8824.0171-5.7648.0365-.2163,21.98-.4328,43.96-.0526,5.3054.7565,6.5581a3.627,3.627,0,0,0,3.546,1.5183q.7155-.0507,1.4313-.1-.007.7792-.0139,1.5584-8.76.618-17.5055,1.4747l.0183-1.5977q.73-.07,1.46-.1376a4.3305,4.3305,0,0,0,3.7356-2.5625q.6829-1.4269.7357-6.3029.2368-22.1638.4738-44.3277-2.46.0184-4.9191.0384a9.8482,9.8482,0,0,0-4.0815.6422,6.7919,6.7919,0,0,0-2.7247,3.2109,17.5645,17.5645,0,0,0-1.407,6.4049q-.574.0158-1.148.032.3279-6.9735.6551-13.9346,16.6953-.0416,33.3919-.0633.1767,6.6357.3546,13.2654Q166.0665,24.9769,165.4916,24.9855Zm38.0252,35.155c-3.9614,5.5677-8.7731,8.3837-14.4115,8.5092-5.6994.1255-10.4756-2.4156-14.3129-7.7606q-5.7555-8.01-5.6538-21.184c.0626-8.9632,2.3356-16.3222,6.7971-21.971,3.8741-4.9039,8.4752-7.324,13.8234-7.3244q7.9622.0021,13.7987,8.2131,5.8469,8.2129,5.8745,20.519Q209.4514,51.8114,203.5168,60.1405Zm39.5468,8.3318c-4.7349-9.137-9.4495-18.0907-14.14-26.9306q-1.5469.05-2.519.03c-.2628-.0053-.5464-.0174-.8492-.0373s-.6175-.0463-.9418-.08q.0367,8.122.0739,16.2442.0245,5.2771.8839,6.583a4.0527,4.0527,0,0,0,3.4859,1.9425q.8082.0318,1.6166.0656.0042.7657.0087,1.5315-8.862-.3805-17.73-.5173-.0017-.759-.0032-1.5178.7777.0117,1.5557.0252a3.7772,3.7772,0,0,0,3.7457-2.2252q.6368-1.2593.62-6.0282-.06-18.0042-.121-36.0085-.0176-5.2615-.8675-6.5376A3.92,3.92,0,0,0,214.3759,13.2l-1.5383-.0013q-.0017-.7587-.0032-1.5177,7.4508.0026,14.9019.0091,6.5157.0054,9.6172,1.3221a11.6586,11.6586,0,0,1,5.2885,4.8695,16.1372,16.1372,0,0,1,2.231,8.4736,16.0759,16.0759,0,0,1-2.3929,9.0375,12.6387,12.6387,0,0,1-7.616,5.2152q4.3,8.19,8.6252,16.5456c1.9773,3.8416,3.6739,6.4416,5.0857,7.77a11.5935,11.5935,0,0,0,5.5027,2.76q.0078.7848.0155,1.57Q248.5812,68.8157,243.0636,68.4723ZM255.9066,45.93q-.0324-3.212-.065-6.4239,7.842.3991,15.6754.9168.04,3.2931.08,6.5864Q263.7572,46.4,255.9066,45.93Zm51.3269,29.7744q-15.7881-2.5857-31.6654-4.3827-.01-.8126-.02-1.625.7289.08,1.4577.1624a3.9983,3.9983,0,0,0,2.75-.7016,3.0213,3.0213,0,0,0,1.2921-1.9778,29.623,29.623,0,0,0,.2728-5.7791q-.2547-19.5658-.5093-39.1317-.0742-5.7309-.876-7.07a3.9839,3.9839,0,0,0-3.6428-1.7952l-1.4482-.0082q-.01-.8124-.02-1.6249,15.76.04,31.5183.0979.324,6.9918.6484,14l-1.1769-.0456a31.8605,31.8605,0,0,0-1.4991-6.9373,6.2391,6.2391,0,0,0-2.3179-2.8878,9.2662,9.2662,0,0,0-4.2631-.7481q-5.611-.0639-11.2229-.12.1617,12.0468.3233,24.0938,4.5054.2752,9.0076.58c2.3361.1588,3.8894-.2671,4.66-1.2975q1.5387-2.0248,1.6457-7.4239.5586.0281,1.117.0564.1538,11.0182.3078,22.0366-.5591-.0585-1.1181-.1164a36.805,36.805,0,0,0-.9286-5.9885,5.7991,5.7991,0,0,0-1.8178-2.7,6.7867,6.7867,0,0,0-3.8194-1.2188q-4.5031-.34-9.01-.6462.135,10.0467.27,20.0936a28.0616,28.0616,0,0,0,.309,4.9515,3.269,3.269,0,0,0,.8669,1.5,4.1611,4.1611,0,0,0,2.3105.8134q3.4845.4527,6.9651.9416a12.2389,12.2389,0,0,0,5.042-.016,6.2627,6.2627,0,0,0,2.9816-2.5049,33.9063,33.9063,0,0,0,3.7127-8.2941q.604.0765,1.208.1537Q308.89,67.992,307.2335,75.7044Zm30.5676,5.767q-.0115-.9479-.0232-1.8956a2.4742,2.4742,0,0,0,2.493-.48,2.98,2.98,0,0,0,.7378-2.0911,8.6916,8.6916,0,0,0-.3111-2.2806,25.4141,25.4141,0,0,0-1.92-4.0149q-7.169-13.1807-14.3756-25.27.144,10.78.2878,21.56a37.2528,37.2528,0,0,0,.4807,6.78,5.3853,5.3853,0,0,0,1.2928,2.3581,5.1243,5.1243,0,0,0,2.7531,1.7156q.692.1343,1.3833.27l.024,1.8559q-8.6877-1.7542-17.4107-3.2671-.0124-.8844-.0245-1.7687.7242.1223,1.4484.2462a3.1151,3.1151,0,0,0,3.6473-1.7342q.7011-1.426.6208-7.3536-.2907-21.2668-.5814-42.534a35.71,35.71,0,0,0-.4828-6.6591,4.3193,4.3193,0,0,0-1.2642-2.0523,4.26,4.26,0,0,0-2.7908-1.1844l-1.4477-.0124-.0246-1.7687q8.7162.0338,17.4315.0729l.024,1.8559-1.3872-.0136a4.155,4.155,0,0,0-3.9947,3.4677,36.2526,36.2526,0,0,0-.2743,6.5061q.137,10.2375.2734,20.4751c.3926-.59,1.7418-2.5379,4.0441-5.9408,5.8462-8.5835,9.3747-14.7262,10.5835-17.8037a9.8243,9.8243,0,0,0,.77-3.592,3.6343,3.6343,0,0,0-.6574-2.1,2.4834,2.4834,0,0,0-2.1516-.9252l-.9352-.01q-.0117-.9453-.0233-1.89,7.5088.0355,15.0169.075.01.99.0206,1.98a5.4285,5.4285,0,0,0-2.405.61,11.3136,11.3136,0,0,0-2.6274,2.2035,35.1722,35.1722,0,0,0-3.7966,5.2053c-.4338.67-2.4311,4.1886-5.9875,10.26q-3.0519,5.058-6.1013,9.9345Q337.825,55.42,345.4729,69.8133a55.4256,55.4256,0,0,0,6.3846,10.1559,13.4987,13.4987,0,0,0,5.2263,3.9262l.0192,2.0141Q347.4788,83.54,337.8011,81.4714Zm54.5329,3.5525c-3.8291,7.3351-8.4567,9.9181-13.9253,8.3295-5.5295-1.6082-10.2145-6.7153-14.0651-14.9654-3.8468-8.2638-5.84-17.9281-5.9456-29.4509-.109-11.7741,2.0041-21.1568,6.3589-28.6282,3.78-6.467,8.3564-9.8921,13.7043-9.8992,5.3091-.0055,9.925,3.9338,13.8173,12.3245,3.89,8.376,5.8169,19.106,5.8163,31.6668C398.0931,67.3416,396.1616,77.709,392.334,85.0239Z"/><path class="cls-1" d="M377.9109,14.6784c-3.6581-.0487-6.5764,2.52-8.7444,7.5367-2.7064,6.2565-4.0019,15.2979-3.9049,27.38.0989,12.3835,1.5916,22.139,4.4588,29.58,2.2008,5.65,5.0674,9.0325,8.6052,10.0076,3.7743,1.04,6.8724-.9926,9.3138-6.3679,2.4433-5.3582,3.6555-14.7062,3.6321-27.8235-.0261-14.22-1.4123-24.9778-4.18-31.9672C384.8738,17.45,381.8061,14.7305,377.9109,14.6784Z"/></svg>